# xmcd CD database file
#
# Track frame offsets:
#	150
#	13082
#	28761
#	53091
#	70891
#	90891
#	108283
#	120564
#	142280
#	165875
#	180704
#	187816
#	203512
#	220204
#	244876
#	255958
#
# Disc length: 3715 seconds
#
# Revision: 2
# Processed by: cddbd v1.5.2PL0 Copyright (c) Steve Scherf et al.
# Submitted via: CDex 1.70beta2
#
DISCID=cf0e8110
DTITLE=Brad Paisley - Play
DYEAR=2008
DGENRE=Country
TTITLE0=Huckleberry Jam
TTITLE1=Turf's Up
TTITLE2=Start A Band (Duet With Keith Urban)
TTITLE3=Kim
TTITLE4=Departure
TTITLE5=Come On In (Featuring Buck Owens)
TTITLE6=Playing With Fire
TTITLE7=Kentucky Jelly
TTITLE8=More Than Just This Song (Featuring Steve Wariner)
TTITLE9=Les Is More
TTITLE10=Pre-Cluster Cluster Pluck Prequel
TTITLE11=Cluster Pluck (Featuring James Burton, Vince Gill, Albert Lee, John Jorgenson, Brent Mason, Redd Volkaert and Steve Wariner)
TTITLE12=Cliffs Of Rock City
TTITLE13=Let The Good Times Roll (Featuring B.B. King)
TTITLE14=What A Friend We Have In Jesus
TTITLE15=Waitin' On A Woman (With Andy Griffith)
EXTD=YEAR: 2008
EXTT0=
EXTT1=
EXTT2=
EXTT3=
EXTT4=
EXTT5=
EXTT6=
EXTT7=
EXTT8=
EXTT9=
EXTT10=
EXTT11=
EXTT12=
EXTT13=
EXTT14=
EXTT15=
PLAYORDER=
